<?xml version="1.0" standalone="no"?><!DOCTYPE svg PUBLIC "-//W3C//DTD SVG 1.1//EN" "http://www.w3.org/Graphics/SVG/1.1/DTD/svg11.dtd"><svg t="1570609991327" class="icon" viewBox="0 0 1024 1024" version="1.1" xmlns="http://www.w3.org/2000/svg" p-id="3015" xmlns:xlink="http://www.w3.org/1999/xlink" width="200" height="200"><defs><style type="text/css"></style></defs><path d="M589.389576 513.241212V89.522424c0-30.937212 16.228848-53.123879 42.263272-57.871515 4.778667-1.05503 9.712485-1.05503 14.491152 0 60.229818 14.429091 114.65697 40.587636 171.442424 82.323394 17.43903 12.877576 34.071273 26.841212 49.772606 41.797818a19.859394 19.859394 0 1 1-27.368727 28.734061 472.281212 472.281212 0 0 0-45.800727-38.477576c-51.541333-37.91903-100.879515-61.781333-154.934303-75.093333h-1.210182c-6.206061 2.01697-8.967758 8.192-8.967758 18.618182v472.591515c4.189091 10.519273 6.454303 21.721212 6.454303 33.295515 0 61.626182-63.674182 111.460848-141.870545 111.460848s-141.839515-49.865697-141.839515-111.398788c0-61.564121 63.51903-111.460848 141.839515-111.460848v-0.03103c36.926061 0 70.500848 11.046788 95.728485 29.168485z m-65.163637 497.508849C258.916848 1010.874182 40.432485 802.443636 28.082424 537.444848 15.825455 272.446061 213.953939 44.559515 478.052848 20.076606c15.204848-1.489455 30.72-2.141091 46.142061-2.141091a19.859394 19.859394 0 0 1 0 39.718788c-14.211879 0-28.516848 0.620606-42.449454 1.861818-245.635879 22.962424-428.652606 236.761212-413.416728 483.048727 15.266909 246.225455 223.294061 435.851636 469.860849 428.280243 246.566788-7.571394 442.554182-209.609697 442.647272-456.331636a452.483879 452.483879 0 0 0-80.709818-259.289213 19.859394 19.859394 0 0 1 32.70594-22.528 496.484848 496.484848 0 0 1-408.576 778.24l-0.062061-0.186181z" p-id="3016" fill="#707070"></path></svg>